<svg xmlns="http://www.w3.org/2000/svg" width="16" height="16" viewBox="0 0 16 16">
  <defs>
    <linearGradient id="goldKey" x1="0%" y1="0%" x2="100%" y2="100%">
      <stop offset="0%" stop-color="#EACC7C"/>
      <stop offset="50%" stop-color="#D4AF37"/>
      <stop offset="100%" stop-color="#C9A769"/>
    </linearGradient>
    <filter id="shadow" x="-50%" y="-50%" width="200%" height="200%">
      <feDropShadow dx="0.2" dy="0.2" stdDeviation="0.3" flood-color="#000" flood-opacity="0.3"/>
    </filter>
  </defs>
  <g filter="url(#shadow)" fill="url(#goldKey)">
    <path d="M10,2 C7.8,2 6,3.8 6,6 C6,6.8 6.3,7.5 6.7,8.1 L2,12.8 L2,14 L3.2,14 L4,13.2 L4,12 L5.2,12 L6,11.2 L6,10 L7.2,10 L7.9,9.3 C8.5,9.7 9.2,10 10,10 C12.2,10 14,8.2 14,6 C14,3.8 12.2,2 10,2 Z M10,4 C11.1,4 12,4.9 12,6 C12,7.1 11.1,8 10,8 C8.9,8 8,7.1 8,6 C8,4.9 8.9,4 10,4 Z"/>
  </g>
</svg> 