<svg xmlns="http://www.w3.org/2000/svg" width="0" height="0" viewBox="0 0 0 0">
  <defs>
    <!-- 金钥匙图标 (客房服务) -->
    <symbol id="room-service" viewBox="0 0 24 24">
      <path d="M12,3c-0.6,0-1,0.4-1,1v2h2V4c0-0.6-0.4-1-1-1z M8,8h8c0.6,0,1,0.4,1,1v10c0,0.6-0.4,1-1,1H8c-0.6,0-1-0.4-1-1V9C7,8.4,7.4,8,8,8z M12,10c-1.1,0-2,0.9-2,2c0,1.1,0.9,2,2,2c1.1,0,2-0.9,2-2C14,10.9,13.1,10,12,10z" 
            fill="url(#gold-service)"/>
      <path d="M19,10h-1v7h1c0.6,0,1-0.4,1-1v-5C20,10.4,19.6,10,19,10z M6,10H5c-0.6,0-1,0.4-1,1v5c0,0.6,0.4,1,1,1h1V10z" 
            fill="url(#gold-service)"/>
    </symbol>
    
    <!-- 棕榈叶图标 (水疗预约) -->
    <symbol id="spa" viewBox="0 0 24 24">
      <path d="M12,5.5C10,8,7,14,7,17c0,3.3,2.7,6,6,6c3.3,0,6-2.7,6-6c0-3-3-9-7-11.5z M12,21c-2.2,0-4-1.8-4-4c0-2,2-6,4-8c2,2,4,6,4,8C16,19.2,14.2,21,12,21z" 
            fill="url(#gold-service)"/>
      <path d="M12,17c-0.6,0-1-0.4-1-1s0.4-1,1-1s1,0.4,1,1S12.6,17,12,17z M14,15c-0.6,0-1-0.4-1-1s0.4-1,1-1s1,0.4,1,1S14.6,15,14,15z M10,15c-0.6,0-1-0.4-1-1s0.4-1,1-1s1,0.4,1,1S10.6,15,10,15z" 
            fill="url(#gold-service)"/>
    </symbol>
    
    <!-- 礼帽图标 (私人管家) -->
    <symbol id="concierge" viewBox="0 0 24 24">
      <path d="M18,12c0-3.3-2.7-6-6-6s-6,2.7-6,6v2h12V12z M10,9c0.6,0,1,0.4,1,1h2c0-0.6,0.4-1,1-1s1,0.4,1,1s-0.4,1-1,1h-4c-0.6,0-1-0.4-1-1S9.4,9,10,9z" 
            fill="url(#gold-service)"/>
      <path d="M20,16c0-0.6-0.4-1-1-1H5c-0.6,0-1,0.4-1,1v3c0,0.6,0.4,1,1,1h14c0.6,0,1-0.4,1-1V16z" 
            fill="url(#gold-service)"/>
    </symbol>
    
    <linearGradient id="gold-service" x1="0%" y1="0%" x2="100%" y2="100%">
      <stop offset="0%" stop-color="#D4AF37"/>
      <stop offset="50%" stop-color="#F4CD69"/>
      <stop offset="100%" stop-color="#D4AF37"/>
    </linearGradient>
  </defs>
</svg> 